<!--?xml version="1.0" standalone="no"?-->
              <svg id="sw-js-blob-svg" viewBox="0 0 100 100" xmlns="http://www.w3.org/2000/svg" version="1.1">
                    <defs> 
                        <linearGradient id="sw-gradient" x1="0" x2="1" y1="1" y2="0">
                            <stop id="stop1" stop-color="rgba(248, 117, 55, 1)" offset="0%"></stop>
                            <stop id="stop2" stop-color="rgba(251, 168, 31, 1)" offset="100%"></stop>
                        </linearGradient>
                    </defs>
                <path fill="url(#sw-gradient)" d="M22.8,-24.6C28.7,-22.3,31.9,-14.3,34.3,-5.3C36.8,3.6,38.5,13.4,33.7,17.3C28.9,21.2,17.6,19.1,9.7,18.4C1.8,17.7,-2.5,18.3,-9.8,19.1C-17,19.8,-27.1,20.6,-30.7,16.6C-34.4,12.6,-31.7,3.7,-28.2,-3C-24.6,-9.7,-20.2,-14.3,-15.4,-16.8C-10.5,-19.3,-5.3,-19.7,1.6,-21.6C8.5,-23.6,17,-27,22.8,-24.6Z" width="100%" height="100%" transform="translate(50 50)" stroke-width="0" style="transition: all 0.3s ease 0s;"></path>
              </svg>