<svg width="37" height="37" viewBox="0 0 37 37" fill="none" xmlns="http://www.w3.org/2000/svg">
<rect x="0.299683" y="0.891357" width="36.1155" height="36.0001" rx="18.0001" fill="white"/>
<path d="M18.3574 11.5179C20.7506 11.5179 21.0769 11.5179 22.0559 11.5179C22.9262 11.5179 23.3613 11.7347 23.6877 11.8432C24.1228 12.06 24.4491 12.1685 24.7755 12.4938C25.1018 12.8191 25.3194 13.1444 25.4282 13.5781C25.537 13.9034 25.6457 14.3372 25.7545 15.2046C25.7545 16.1805 25.7545 16.3974 25.7545 18.8914C25.7545 21.3854 25.7545 21.6022 25.7545 22.5781C25.7545 23.4456 25.537 23.8794 25.4282 24.2047C25.2106 24.6384 25.1018 24.9637 24.7755 25.289C24.4491 25.6143 24.1228 25.8312 23.6877 25.9396C23.3613 26.048 22.9262 26.1565 22.0559 26.2649C21.0769 26.2649 20.8593 26.2649 18.3574 26.2649C15.8554 26.2649 15.6378 26.2649 14.6588 26.2649C13.7885 26.2649 13.3534 26.048 13.0271 25.9396C12.5919 25.7227 12.2656 25.6143 11.9393 25.289C11.6129 24.9637 11.3953 24.6384 11.2866 24.2047C11.1778 23.8794 11.069 23.4456 10.9602 22.5781C10.9602 21.6022 10.9602 21.3854 10.9602 18.8914C10.9602 16.3974 10.9602 16.1805 10.9602 15.2046C10.9602 14.3372 11.1778 13.9034 11.2866 13.5781C11.5041 13.1444 11.6129 12.8191 11.9393 12.4938C12.2656 12.1685 12.5919 11.9516 13.0271 11.8432C13.3534 11.7347 13.7885 11.6263 14.6588 11.5179C15.6378 11.5179 15.9642 11.5179 18.3574 11.5179ZM18.3574 9.89136C15.8554 9.89136 15.6378 9.89136 14.6588 9.89136C13.6798 9.89136 13.0271 10.1082 12.4832 10.3251C11.9393 10.542 11.3953 10.8673 10.8514 11.4094C10.3075 11.9516 10.09 12.3853 9.76362 13.0359C9.54606 13.5781 9.43727 14.2287 9.32849 15.2046C9.32849 16.1805 9.32849 16.5058 9.32849 18.8914C9.32849 21.3854 9.32849 21.6022 9.32849 22.5781C9.32849 23.5541 9.54606 24.2047 9.76362 24.7468C9.98118 25.289 10.3075 25.8312 10.8514 26.3733C11.3953 26.9155 11.8305 27.1324 12.4832 27.4577C13.0271 27.6746 13.6798 27.783 14.6588 27.8914C15.6378 27.8914 15.9642 27.8914 18.3574 27.8914C20.7506 27.8914 21.0769 27.8914 22.0559 27.8914C23.035 27.8914 23.6877 27.6746 24.2316 27.4577C24.7755 27.2408 25.3194 26.9155 25.8633 26.3733C26.4072 25.8312 26.6248 25.3974 26.9511 24.7468C27.1687 24.2047 27.2775 23.5541 27.3862 22.5781C27.3862 21.6022 27.3862 21.2769 27.3862 18.8914C27.3862 16.5058 27.3862 16.1805 27.3862 15.2046C27.3862 14.2287 27.1687 13.5781 26.9511 13.0359C26.7336 12.4938 26.4072 11.9516 25.8633 11.4094C25.3194 10.8673 24.8843 10.6504 24.2316 10.3251C23.6877 10.1082 23.035 9.99979 22.0559 9.89136C21.0769 9.89136 20.8593 9.89136 18.3574 9.89136Z" fill="#683C7E"/>
<path d="M18.3574 14.2287C15.7466 14.2287 13.6798 16.289 13.6798 18.8914C13.6798 21.4938 15.7466 23.5541 18.3574 23.5541C20.9681 23.5541 23.035 21.4938 23.035 18.8914C23.035 16.289 20.9681 14.2287 18.3574 14.2287ZM18.3574 21.9275C16.7256 21.9275 15.3115 20.6263 15.3115 18.8914C15.3115 17.2649 16.6169 15.8552 18.3574 15.8552C19.9891 15.8552 21.4033 17.1564 21.4033 18.8914C21.4033 20.5179 19.9891 21.9275 18.3574 21.9275Z" fill="#683C7E"/>
<path d="M23.1438 15.2046C23.7445 15.2046 24.2316 14.7192 24.2316 14.1203C24.2316 13.5214 23.7445 13.0359 23.1438 13.0359C22.543 13.0359 22.0559 13.5214 22.0559 14.1203C22.0559 14.7192 22.543 15.2046 23.1438 15.2046Z" fill="#683C7E"/>
</svg>
