<?xml version="1.0" encoding="UTF-8"?><svg id="Layer_2" xmlns="http://www.w3.org/2000/svg" viewBox="0 0 393.04 72"><g><path d="M90.37,64.23h-6.88V8.23h6.88v56Z"/><path d="M142.63,14.39h-19.04v49.84h-6.88V14.39h-19.04v-6.16h44.96v6.16Z"/><path d="M149.89,64.23V8.23h36v6.16h-29.12v18.4h26.96v6.24h-26.96v19.04h30.64v6.16h-37.52Z"/><path d="M230.67,64.23l-14.88-23.84h-13.36v23.84h-6.72V8.23h21.6c11.6,0,17.44,7.36,17.44,15.36,0,6.56-3.76,13.2-11.68,15.6l15.68,25.04h-8.08Zm-2.56-40.4c0-4.88-3.28-9.44-10.4-9.44h-15.28v20h14.32c7.52,0,11.36-5.28,11.36-10.56Z"/><path d="M283.24,49.11h-25.84l-6,15.12h-7.2l22.8-56h6.88l22.72,56h-7.36l-6-15.12Zm-2.4-6.24l-10.48-26.48-10.48,26.48h20.96Z"/><path d="M336.14,14.39h-19.04v49.84h-6.88V14.39h-19.04v-6.16h44.96v6.16Z"/><path d="M343.4,64.23V8.23h36v6.16h-29.12v18.4h26.96v6.24h-26.96v19.04h30.64v6.16h-37.52Z"/></g><path d="M67.34,48.44c0-.78-.64-1.42-1.42-1.42h-6.17c-.78,0-1.42,.64-1.42,1.42v.81c0,.78-.64,1.42-1.42,1.42h-2.45c-.78,0-1.42-.64-1.42-1.42v-2.87c0-.78-.64-1.42-1.42-1.42h-1.92c-.78,0-1.42-.64-1.42-1.42v-1.06c0-.78,.64-1.42,1.42-1.42h6.04c.78,0,1.42-.64,1.42-1.42v-3.36c0-.78,.64-1.42,1.42-1.42h1.52c.78,0,1.42-.64,1.42-1.42v-2.95c0-.78,.2-1.42,.45-1.42s.45-.64,.45-1.42v-1.04c0-.78,.64-1.42,1.42-1.42h.45c.78,0,1.42-.64,1.42-1.42v-6.17c0-.78-.42-1.42-.92-1.42s-.92-.64-.92-1.42v-2.44c0-.78-.64-1.42-1.42-1.42h-3.34c-.78,0-1.42-.15-1.42-.33s-.4-.33-.89-.33-.89-.64-.89-1.42v-1.77c0-.78-.64-1.42-1.42-1.42h-1.38c-.78,0-1.42-.18-1.42-.4s-.64-.4-1.42-.4h-6.17c-.78,0-1.42,.64-1.42,1.42v1.14c0,.78-.52,1.42-1.16,1.42s-1.16,.64-1.16,1.42v6.17c0,.78,.64,1.42,1.42,1.42h5.49c.78,0,1.42,.32,1.42,.71s.64,.71,1.42,.71h3.34c.78,0,1.42,.15,1.42,.33s.42,.33,.92,.33,.92,.03,.92,.08-.64,.08-1.42,.08h-.45c-.78,0-1.42,.64-1.42,1.42v2.95c0,.78-.2,1.42-.45,1.42s-.45,.64-.45,1.42v3.36c0,.78-.37,1.42-.82,1.42s-.82-.64-.82-1.42v-1.94c0-.78-.64-1.42-1.42-1.42h-.36c-.78,0-1.42-.53-1.42-1.18s-.64-1.18-1.42-1.18h-3.15c-.78,0-1.42-.64-1.42-1.42v-2.67c0-.78-.64-1.42-1.42-1.42h-2.72c-.78,0-1.42-.61-1.42-1.36s-.44-1.36-.97-1.36-.97-.64-.97-1.42v-.7c0-.78-.21-1.42-.46-1.42s-.46-.64-.46-1.42v-.89c0-.78-.64-1.42-1.42-1.42h-5.17c-.78,0-1.42-.1-1.42-.21s-.51-.21-1.14-.21-1.14-.64-1.14-1.42V3.57c0-.78-.64-1.42-1.42-1.42h-6.17c-.78,0-1.42,.55-1.42,1.22s-.64,1.22-1.42,1.22h-2.73c-.78,0-1.42,.64-1.42,1.42v2.24c0,.78-.5,1.42-1.1,1.42s-1.1,.64-1.1,1.42v6.17c0,.78,.64,1.42,1.42,1.42h.74c.78,0,1.42,.64,1.42,1.42v1.72c0,.78,.43,1.42,.97,1.42s.97,.64,.97,1.42v1.17c0,.78-.34,1.42-.75,1.42s-.75,.64-.75,1.42v6.17c0,.78,.31,1.42,.7,1.42s.7,.64,.7,1.42v5.19c0,.78,.35,1.42,.78,1.42s.78,.38,.78,.84-.64,.84-1.42,.84H7.76c-.78,0-1.42,.64-1.42,1.42v3.47c0,.78-.09,1.42-.2,1.42s-.2,.64-.2,1.42v6.17c0,.78,.53,1.42,1.19,1.42s1.19,.64,1.19,1.42v4.56c0,.78,.64,1.42,1.42,1.42h4.07c.78,0,1.42,.27,1.42,.61s.64,.61,1.42,.61h6.17c.78,0,1.42-.64,1.42-1.42v-3.43c0-.78,.64-1.42,1.42-1.42h1.27c.78,0,1.42-.59,1.42-1.31s.61-1.31,1.36-1.31,1.36-.64,1.36-1.42v-6.17c0-.78-.64-1.42-1.42-1.42h-1.02c-.78,0-1.42-.38-1.42-.84s.09-.84,.19-.84,.19-.56,.19-1.24,.64-1.24,1.42-1.24h1.59c.78,0,1.42-.39,1.42-.87s.44-.87,.99-.87,.99,.64,.99,1.42v.29c0,.78,.64,1.42,1.42,1.42h6.17c.78,0,1.42-.09,1.42-.19s.24-.19,.54-.19,.54,.64,.54,1.42v2.32c0,.78,.64,1.42,1.42,1.42h2.92c.78,0,1.42,.64,1.42,1.42v2.87c0,.78,.64,1.42,1.42,1.42h.95c.78,0,1.42,.13,1.42,.3s.64,.3,1.42,.3h6.17c.78,0,1.42-.64,1.42-1.42v-1.4c0-.78,.64-1.42,1.42-1.42h1.92c.78,0,1.42-.64,1.42-1.42v-6.17Zm-28.04-8.44c0,.1-.41,.19-.91,.19s-.91-.14-.91-.32,.64-.32,1.42-.32h3.29c.78,0,1.42-.64,1.42-1.42v-.43c0-.78,.64-1.42,1.42-1.42h1.74c.78,0,1.42,.64,1.42,1.42v.68c0,.78-.64,1.42-1.42,1.42h-6.04c-.78,0-1.42,.09-1.42,.19Zm-24.16,14.93c.11,0,.2-.4,.2-.9s.64-.9,1.42-.9h0c.78,0,1.42,.59,1.42,1.31s.26,1.31,.57,1.31,.57,.64,.57,1.42v2.27c0,.78-.45,1.42-1,1.42s-1-.27-1-.61-.53-.61-1.19-.61-1.19-.64-1.19-1.42v-1.86c0-.78,.09-1.42,.2-1.42Zm11.1-20.3c-.78,0-1.42-.43-1.42-.95s-.64-.95-1.42-.95h-2.76c-.78,0-1.42-.64-1.42-1.42v-.7c0-.78,.34-1.42,.75-1.42s.75-.64,.75-1.42v-6.17c0-.78-.43-1.42-.97-1.42s-.97-.04-.97-.1,.64-.1,1.42-.1h3.57c.78,0,1.42,.48,1.42,1.08s.44,1.08,.97,1.08,.97,.64,.97,1.42v.7c0,.78,.64,1.42,1.42,1.42h1.75c.78,0,1.42,.64,1.42,1.42v5.44c0,.78,.24,1.42,.53,1.42s.53,.64,.53,1.42v.26c0,.78-.64,1.42-1.42,1.42h-1.29c-.78,0-1.42-.55-1.42-1.22s-.64-1.22-1.42-1.22h-1.01ZM15.74,13.58c.29,0,.52,.14,.52,.31s-.24,.31-.52,.31-.52-.14-.52-.31,.24-.31,.52-.31Z"/></svg>