<?xml version="1.0" encoding="utf-8"?>
<!-- Generator: Adobe Illustrator 25.4.1, SVG Export Plug-In . SVG Version: 6.00 Build 0)  -->
<svg version="1.1" id="Layer_1" xmlns="http://www.w3.org/2000/svg" xmlns:xlink="http://www.w3.org/1999/xlink" x="0px" y="0px"
	 viewBox="0 0 1729 215.6" style="enable-background:new 0 0 1729 215.6;" xml:space="preserve">
<style type="text/css">
	.st0{clip-path:url(#SVGID_00000097485554698727154050000002768161142521259442_);}
	.st1{fill:#DFD3E4;}
	.st2{fill:#C0A6CB;}
	.st3{fill:#5C2682;}
</style>
<g>
	<defs>
		<rect id="SVGID_1_" x="0.6" y="-14.5" width="1728" height="447"/>
	</defs>
	<clipPath id="SVGID_00000082326531079337502060000004408356394215985044_">
		<use xlink:href="#SVGID_1_"  style="overflow:visible;"/>
	</clipPath>
	<g style="clip-path:url(#SVGID_00000082326531079337502060000004408356394215985044_);">
		<path class="st1" d="M0.6,58.7l41.3,0.4c41.3,0.4,123.8,1.3,206,1.3c82.4,0,164.2-0.9,246.5-0.2c82.2,0.8,164.7,3,246.9-9.4
			c82.4-12.3,164.2-39.2,246.5-45.2c82.2-6,164.7,9,246.9,14.5c82.4,5.5,164.2,1.6,246.5,5.5c82.2,4,164.7,15.9,206,21.9l41.3,6v142
			h-41.3c-41.3,0-123.8,0-206,0c-82.4,0-164.2,0-246.5,0c-82.2,0-164.7,0-246.9,0c-82.4,0-164.2,0-246.5,0c-82.2,0-164.7,0-246.9,0
			c-82.4,0-164.2,0-246.5,0c-82.2,0-164.7,0-206,0H0.6V58.7z"/>
		<path class="st2" d="M0.6,71.3l41.3,4.6c41.3,4.5,123.8,13.8,206,17.1c82.4,3.4,164.2,0.8,246.5,3.7c82.2,2.8,164.7,11,246.9,7.1
			c82.4-4,164.2-20.1,246.5-20.9c82.2-0.7,164.7,13.9,246.9,17.1c82.4,3.2,164.2-5,246.5-9.1c82.2-4.1,164.7-4.1,206-4.1h41.3V221
			h-41.3c-41.3,0-123.8,0-206,0c-82.4,0-164.2,0-246.5,0c-82.2,0-164.7,0-246.9,0c-82.4,0-164.2,0-246.5,0c-82.2,0-164.7,0-246.9,0
			c-82.4,0-164.2,0-246.5,0c-82.2,0-164.7,0-206,0H0.6V71.3z"/>
		<path class="st3" d="M0.6,149.7l41.3-8c41.3-8.1,123.8-24,206-21.9c82.4,2.2,164.2,22.7,246.5,31.8c82.2,9.1,164.7,6.8,246.9-3.6
			c82.4-10.4,164.2-29.3,246.5-27.7c82.2,1.7,164.7,23.9,246.9,31.3c82.4,7.5,164.2,0.2,246.5,0c82.2-0.3,164.7,6.3,206,9.6
			l41.3,3.3V221h-41.3c-41.3,0-123.8,0-206,0c-82.4,0-164.2,0-246.5,0c-82.2,0-164.7,0-246.9,0c-82.4,0-164.2,0-246.5,0
			c-82.2,0-164.7,0-246.9,0c-82.4,0-164.2,0-246.5,0c-82.2,0-164.7,0-206,0H0.6V149.7z"/>
	</g>
</g>
</svg>
