<svg width="37" height="37" viewBox="0 0 37 37" fill="none" xmlns="http://www.w3.org/2000/svg">
<rect x="0.700317" y="0.891357" width="36" height="36" rx="18" fill="white"/>
<path d="M25.9003 19.5614V24.5255H22.9945V19.8641C22.9945 18.7138 22.5707 17.9268 21.5416 17.9268C20.7546 17.9268 20.2703 18.4717 20.0887 18.956C20.0281 19.1376 19.9676 19.3797 19.9676 19.6824V24.5255H17.0618C17.0618 24.5255 17.1223 16.6555 17.0618 15.8685H19.9676V17.0793C20.3308 16.4739 21.0573 15.6264 22.5707 15.6264C24.4474 15.6264 25.9003 16.8977 25.9003 19.5614ZM14.0349 11.6914C13.0662 11.6914 12.4003 12.3573 12.4003 13.2049C12.4003 14.0524 13.0057 14.7183 13.9743 14.7183C15.0035 14.7183 15.6089 14.0524 15.6089 13.2049C15.6694 12.2968 15.064 11.6914 14.0349 11.6914ZM12.5819 24.5255H15.4878V15.8685H12.5819V24.5255Z" fill="#683C7E"/>
</svg>
