<?xml version="1.0" encoding="UTF-8" standalone="no"?>
<svg
   xmlns:dc="http://purl.org/dc/elements/1.1/"
   xmlns:cc="http://creativecommons.org/ns#"
   xmlns:rdf="http://www.w3.org/1999/02/22-rdf-syntax-ns#"
   xmlns:svg="http://www.w3.org/2000/svg"
   xmlns="http://www.w3.org/2000/svg"
   xmlns:sodipodi="http://sodipodi.sourceforge.net/DTD/sodipodi-0.dtd"
   xmlns:inkscape="http://www.inkscape.org/namespaces/inkscape"
   width="867"
   height="323"
   id="svg2"
   version="1.1"
   inkscape:version="0.91 r13725"
   sodipodi:docname="ntnuigjovik.svg">
  <metadata
     id="metadata50">
    <rdf:RDF>
      <cc:Work
         rdf:about="">
        <dc:format>image/svg+xml</dc:format>
        <dc:type
           rdf:resource="http://purl.org/dc/dcmitype/StillImage" />
        <dc:title></dc:title>
      </cc:Work>
    </rdf:RDF>
  </metadata>
  <defs
     id="defs48" />
  <sodipodi:namedview
     pagecolor="#ffffff"
     bordercolor="#666666"
     borderopacity="1"
     objecttolerance="10"
     gridtolerance="10"
     guidetolerance="10"
     inkscape:pageopacity="0"
     inkscape:pageshadow="2"
     inkscape:window-width="1563"
     inkscape:window-height="876"
     id="namedview46"
     showgrid="false"
     inkscape:zoom="1.0178423"
     inkscape:cx="404.94222"
     inkscape:cy="128.31558"
     inkscape:window-x="37"
     inkscape:window-y="24"
     inkscape:window-maximized="1"
     inkscape:current-layer="layer2" />
  <g
     inkscape:groupmode="layer"
     id="layer2"
     inkscape:label="Layer 2">
    <ellipse
       style="fill:#000000;fill-rule:evenodd;stroke:#000000;stroke-width:1.00429058px;stroke-linecap:butt;stroke-linejoin:miter;stroke-opacity:1"
       id="path3378"
       cx="-867.6947"
       cy="-396.02646"
       rx="273.7142"
       ry="162.56036" />
    <ellipse
       style="fill:#000000;fill-rule:evenodd;stroke:#000000;stroke-width:1.00429058px;stroke-linecap:butt;stroke-linejoin:miter;stroke-opacity:1"
       id="path3378-3"
       cx="-555.07452"
       cy="-397.41586"
       rx="273.7142"
       ry="162.56036" />
    <ellipse
       style="fill:#000000"
       id="path4225"
       cx="251.84825"
       cy="162.36911"
       rx="247.91838"
       ry="156.70708" />
    <ellipse
       style="fill:#000000"
       id="path4225-6"
       cx="612.23456"
       cy="162.85426"
       rx="247.91838"
       ry="156.70708" />
  </g>
  <g
     id="g4">
    <title
       id="title6">background</title>
    <rect
       fill="none"
       id="canvas_background"
       height="325"
       width="869"
       y="-1"
       x="-1" />
  </g>
  <g
     id="g9">
    <title
       id="title11">Layer 1</title>
    <g
       display="none"
       id="BG">
      <rect
         x="-68"
         y="-314"
         id="svg_1"
         height="1000"
         width="1000"
         fill="#231F20" />
    </g>
    <g
       id="Elispe_left">
      <g
         id="svg_2">
        <path
           id="svg_3"
           d="m432.298,243.303c-5.897,4.682 -12.293,9.124 -19.133,13.307c-6.161,3.768 -12.684,7.32 -19.537,10.64c-38.981,18.88 -88.611,30.196 -142.665,30.196c-125.348,-0.001 -226.963,-60.816 -226.963,-135.835c0,-75.02 101.615,-135.834 226.963,-135.834c53.798,0 103.214,11.209 142.111,29.929c5.874,-5.456 12.188,-10.686 18.914,-15.664c-43.432,-23.468 -99.614,-37.628 -160.988,-37.628c-137.657,0 -249.25,71.192 -249.25,159.015c0,87.82 111.593,159.014 249.25,159.014c61.523,0 117.828,-14.229 161.304,-37.799c6.898,-3.74 13.478,-7.711 19.699,-11.901c6.733,-4.536 13.055,-9.323 18.921,-14.34c-6.652,-4.125 -12.878,-8.497 -18.626,-13.1z"
           fill="#007D32" />
      </g>
    </g>
    <g
       id="Elipse_right">
      <path
         id="svg_4"
         d="m613.25,2.635c-61.398,0 -117.617,14.053 -161.142,37.356c-7.073,3.787 -13.818,7.812 -20.188,12.067c-6.793,4.538 -13.17,9.329 -19.087,14.352c6.924,4.216 13.394,8.699 19.356,13.425c5.815,-4.665 12.124,-9.092 18.864,-13.266c6.279,-3.887 12.938,-7.549 19.944,-10.965c38.893,-18.961 88.425,-30.328 142.375,-30.328c125.022,0 226.376,61 226.376,136.251c0,75.247 -101.354,136.249 -226.376,136.249c-54.134,0 -103.821,-11.443 -142.773,-30.521c-5.813,5.358 -12.048,10.5 -18.686,15.395c43.551,23.365 99.846,37.46 161.335,37.46c138.116,0 250.084,-71.069 250.084,-158.737c0.002,-87.669 -111.966,-158.738 -250.082,-158.738z"
         fill="#007D32" />
    </g>
    <g
       id="Letter_N_1_">
      <g
         id="svg_5">
        <path
           id="svg_6"
           d="m276.031,90.984l20.687,0l26.997,39.667l0,-39.667l20.883,0l0,71.695l-20.883,0l-26.85,-39.365l0,39.365l-20.833,0l0,-71.695l-0.001,0z"
           fill="#FAFA00" />
      </g>
    </g>
    <g
       id="Letter_T">
      <path
         id="svg_7"
         d="m353.99,90.966l67.36,0l0,17.708l-22.6,0l0,54.005l-22.16,0l0,-54.005l-22.6,0l0,-17.708z"
         fill="#FAFA00" />
    </g>
    <g
       id="Letter_N">
      <g
         id="svg_8">
        <path
           id="svg_9"
           d="m431.862,90.984l20.687,0l26.996,39.667l0,-39.667l20.885,0l0,71.695l-20.885,0l-26.85,-39.365l0,39.365l-20.833,0l0,-71.695z"
           fill="#FAFA00" />
      </g>
    </g>
    <g
       id="Letter_U">
      <path
         id="svg_10"
         d="m562,90.966l22.076,0l0,42.659c0,4.229 -0.66,8.222 -1.979,11.98c-1.318,3.758 -3.387,7.045 -6.203,9.858c-2.816,2.816 -5.77,4.789 -8.863,5.93c-4.301,1.593 -9.459,2.392 -15.482,2.392c-3.484,0 -7.285,-0.247 -11.404,-0.731c-4.119,-0.491 -7.562,-1.455 -10.328,-2.904c-2.77,-1.45 -5.301,-3.506 -7.594,-6.175c-2.297,-2.669 -3.869,-5.418 -4.715,-8.247c-1.367,-4.556 -2.051,-8.592 -2.051,-12.103l0,-42.659l22.074,0l0,43.674c0,3.904 1.082,6.952 3.248,9.149c2.164,2.194 5.17,3.294 9.01,3.294c3.811,0 6.799,-1.082 8.965,-3.248c2.162,-2.162 3.246,-5.23 3.246,-9.196l0,-43.673z"
         fill="#FAFA00" />
    </g>
    <g
       id="Letter_I">
      <g
         id="svg_11">
        <path
           id="svg_12"
           d="m599.582,90.985l22.203,0l0,71.694l-22.203,0l0,-71.694z"
           fill="#FAFA00" />
      </g>
    </g>
    <g
       id="Letter_G">
      <g
         id="svg_13">
        <path
           id="svg_14"
           d="m306.65,212.918l0,-11.771l27.013,0l0,24.12c-5.171,3.523 -9.743,5.925 -13.719,7.198c-3.975,1.273 -8.688,1.909 -14.143,1.909c-6.715,0 -12.189,-1.143 -16.422,-3.435c-4.232,-2.29 -7.512,-5.698 -9.84,-10.227c-2.329,-4.53 -3.493,-9.726 -3.493,-15.593c0,-6.174 1.275,-11.544 3.821,-16.111c2.547,-4.567 6.278,-8.034 11.192,-10.4c3.833,-1.824 8.992,-2.74 15.476,-2.74c6.251,0 10.926,0.567 14.028,1.698c3.1,1.133 5.673,2.89 7.718,5.269c2.046,2.381 3.581,5.397 4.612,9.048l-16.865,3.013c-0.695,-2.137 -1.872,-3.77 -3.532,-4.902c-1.658,-1.131 -3.775,-1.697 -6.348,-1.697c-3.833,0 -6.889,1.329 -9.166,3.993c-2.277,2.662 -3.416,6.875 -3.416,12.639c0,6.125 1.152,10.498 3.455,13.121c2.302,2.626 5.512,3.938 9.629,3.938c1.955,0 3.819,-0.283 5.595,-0.85c1.775,-0.564 3.807,-1.529 6.097,-2.894l0,-5.326l-11.692,0z"
           fill="#FAFA00" />
      </g>
    </g>
    <g
       id="Letter_J">
      <path
         id="svg_15"
         d="m369.105,176.781l17.502,0l0,30.705c0,6.447 -0.572,11.352 -1.715,14.717c-1.144,3.365 -3.445,6.216 -6.902,8.553c-3.456,2.336 -7.883,3.506 -13.28,3.506c-5.706,0 -10.128,-0.771 -13.262,-2.313c-3.136,-1.541 -5.559,-3.797 -7.268,-6.764c-1.709,-2.97 -2.717,-6.638 -3.026,-11.009l16.693,-2.274c0.026,2.494 0.245,4.344 0.656,5.552c0.411,1.209 1.106,2.186 2.083,2.93c0.668,0.489 1.619,0.733 2.852,0.733c1.953,0 3.387,-0.728 4.3,-2.177c0.913,-1.45 1.368,-3.895 1.368,-7.337l0,-34.822l-0.001,0z"
         fill="#FAFA00" />
    </g>
    <g
       id="Letter_Ø">
      <path
         id="svg_16"
         d="m444.596,181.979l6.471,-6.137l5.629,6.006l-6.453,6.11c1.318,1.991 2.35,4.496 3.096,7.515c0.746,3.023 1.121,6.188 1.121,9.494c0,6.39 -1.148,11.643 -3.449,15.759c-2.297,4.114 -5.465,7.239 -9.506,9.379c-4.036,2.138 -9.124,3.207 -15.263,3.207c-4.373,0 -8.289,-0.559 -11.74,-1.67c-2.237,-0.719 -4.45,-1.894 -6.637,-3.527l-6.548,6.203l-5.632,-5.929l6.583,-6.245c-2.971,-4.601 -4.458,-10.248 -4.458,-16.941c0,-8.977 2.481,-15.961 7.444,-20.946c4.961,-4.987 11.856,-7.481 20.687,-7.481c7.833,-0.002 14.054,1.734 18.655,5.203zm-10.889,10.331c-1.867,-1.83 -4.429,-2.741 -7.691,-2.741c-3.409,0 -6.148,1.198 -8.214,3.6c-2.065,2.404 -3.098,6.307 -3.098,11.706c0,1.693 0.124,3.396 0.374,5.114l18.629,-17.679zm3.559,7.943l-18.677,17.699c1.814,1.809 4.337,2.716 7.568,2.716c3.604,0 6.406,-1.17 8.406,-3.508c2.003,-2.339 3.002,-6.394 3.002,-12.166c-0.001,-1.592 -0.1,-3.175 -0.299,-4.741z"
         fill="#FAFA00" />
    </g>
    <g
       id="Letter_V">
      <path
         id="svg_17"
         d="m458.646,176.797l18.326,0l12.771,40.831l12.607,-40.831l17.793,0l-21.068,56.738l-19.002,0l-21.427,-56.738z"
         fill="#FAFA00" />
    </g>
    <g
       id="Letter_I_1_">
      <path
         id="svg_18"
         d="m528.221,176.797l17.572,0l0,56.738l-17.572,0l0,-56.738z"
         fill="#FAFA00" />
    </g>
    <g
       id="Letter_K">
      <path
         id="svg_19"
         d="m561.67,176.793l17.535,0l0,21.443l18.367,-21.443l23.318,0l-20.709,21.416l21.637,35.326l-21.59,0l-11.967,-23.337l-9.057,9.491l0,13.846l-17.534,0l0,-56.742z"
         fill="#FAFA00" />
    </g>
  </g>
  <g
     inkscape:groupmode="layer"
     id="layer1"
     inkscape:label="Layer 1" />
</svg>
