<svg width="683" height="616" viewBox="0 0 683 616" fill="none" xmlns="http://www.w3.org/2000/svg">
<g filter="url(#filter0_d_131_14)">
<path d="M365.911 145.816C429.896 160.479 490.299 165.244 531.713 196.514C573.127 227.784 595.577 285.427 591.429 345.778C587.28 406.13 556.534 469.19 505.821 485.423C455.107 501.655 384.453 470.929 316.298 455.627C248.057 440.38 182.403 440.504 142.385 410.329C102.341 380.285 88.0567 320.096 96.3737 260.382C104.778 200.614 135.819 141.529 185.163 124.07C234.48 106.743 301.925 131.152 365.911 145.816Z" fill="#E4AB49"/>
<path d="M233.004 219.237H235.702L243.948 243.557L252.156 219.237H254.854L245.354 246.597H242.504L233.004 219.237ZM257.292 246.597V226.913H259.572V246.597H257.292ZM257.178 222.619V219.237H259.686V222.619H257.178ZM290.2 235.387C290.2 234.424 290.061 233.525 289.782 232.689C289.529 231.827 289.136 231.093 288.604 230.485C288.098 229.851 287.452 229.357 286.666 229.003C285.881 228.623 284.982 228.433 283.968 228.433C282.955 228.433 282.056 228.623 281.27 229.003C280.51 229.383 279.852 229.889 279.294 230.523C278.762 231.156 278.332 231.891 278.002 232.727C277.673 233.563 277.458 234.449 277.356 235.387H290.2ZM277.356 237.287C277.356 238.351 277.496 239.364 277.774 240.327C278.053 241.264 278.458 242.087 278.99 242.797C279.548 243.481 280.244 244.038 281.08 244.469C281.916 244.874 282.879 245.077 283.968 245.077C285.463 245.077 286.742 244.684 287.806 243.899C288.87 243.113 289.58 241.999 289.934 240.555H292.48C292.202 241.492 291.834 242.366 291.378 243.177C290.922 243.962 290.352 244.659 289.668 245.267C288.984 245.849 288.174 246.305 287.236 246.635C286.299 246.964 285.21 247.129 283.968 247.129C282.398 247.129 281.042 246.863 279.902 246.331C278.762 245.799 277.825 245.077 277.09 244.165C276.356 243.227 275.811 242.138 275.456 240.897C275.102 239.63 274.924 238.275 274.924 236.831C274.924 235.387 275.127 234.031 275.532 232.765C275.963 231.498 276.558 230.396 277.318 229.459C278.104 228.496 279.054 227.749 280.168 227.217C281.283 226.659 282.55 226.381 283.968 226.381C286.679 226.381 288.807 227.318 290.352 229.193C291.898 231.042 292.658 233.74 292.632 237.287H277.356ZM299.459 246.597H297.179V226.913H299.459V230.599H299.535C300.169 229.028 300.979 227.939 301.967 227.331C302.981 226.697 304.311 226.381 305.957 226.381V228.851C304.665 228.825 303.601 229.028 302.765 229.459C301.929 229.889 301.258 230.472 300.751 231.207C300.27 231.941 299.928 232.815 299.725 233.829C299.548 234.817 299.459 235.855 299.459 236.945V246.597ZM320.638 246.597V219.237H329.986C330.746 219.237 331.493 219.262 332.228 219.313C332.963 219.338 333.685 219.427 334.394 219.579C335.103 219.705 335.787 219.908 336.446 220.187C337.13 220.465 337.789 220.833 338.422 221.289C339.334 221.947 340.081 222.758 340.664 223.721C341.247 224.658 341.703 225.659 342.032 226.723C342.387 227.761 342.627 228.825 342.754 229.915C342.906 230.979 342.982 231.967 342.982 232.879C342.982 233.791 342.919 234.715 342.792 235.653C342.691 236.59 342.513 237.515 342.26 238.427C342.007 239.313 341.665 240.175 341.234 241.011C340.829 241.821 340.309 242.569 339.676 243.253C339.043 243.962 338.346 244.532 337.586 244.963C336.851 245.393 336.066 245.735 335.23 245.989C334.419 246.217 333.571 246.381 332.684 246.483C331.797 246.559 330.898 246.597 329.986 246.597H320.638ZM323.222 244.393H329.416C330.581 244.393 331.671 244.329 332.684 244.203C333.723 244.051 334.774 243.696 335.838 243.139C336.75 242.683 337.497 242.062 338.08 241.277C338.663 240.491 339.119 239.643 339.448 238.731C339.803 237.793 340.043 236.818 340.17 235.805C340.322 234.791 340.398 233.816 340.398 232.879C340.398 231.891 340.335 230.89 340.208 229.877C340.081 228.838 339.841 227.863 339.486 226.951C339.131 226.013 338.65 225.165 338.042 224.405C337.434 223.619 336.649 222.973 335.686 222.467C334.875 222.036 333.913 221.757 332.798 221.631C331.683 221.504 330.556 221.441 329.416 221.441H323.222V244.393ZM360.602 236.261C359.639 236.666 358.664 236.932 357.676 237.059C356.688 237.185 355.7 237.287 354.712 237.363C352.964 237.489 351.596 237.882 350.608 238.541C349.645 239.199 349.164 240.2 349.164 241.543C349.164 242.151 349.278 242.683 349.506 243.139C349.759 243.569 350.076 243.937 350.456 244.241C350.861 244.519 351.317 244.735 351.824 244.887C352.356 245.013 352.888 245.077 353.42 245.077C354.332 245.077 355.218 244.963 356.08 244.735C356.941 244.507 357.701 244.165 358.36 243.709C359.044 243.227 359.588 242.632 359.994 241.923C360.399 241.188 360.602 240.327 360.602 239.339V236.261ZM356.764 235.121C357.194 235.07 357.701 234.994 358.284 234.893C358.892 234.791 359.386 234.652 359.766 234.475C360.146 234.297 360.374 234.006 360.45 233.601C360.551 233.17 360.602 232.777 360.602 232.423C360.602 231.257 360.222 230.307 359.462 229.573C358.727 228.813 357.473 228.433 355.7 228.433C354.914 228.433 354.192 228.509 353.534 228.661C352.875 228.787 352.292 229.028 351.786 229.383C351.304 229.712 350.899 230.168 350.57 230.751C350.266 231.308 350.063 232.017 349.962 232.879H347.644C347.72 231.713 347.986 230.725 348.442 229.915C348.898 229.079 349.48 228.407 350.19 227.901C350.924 227.369 351.76 226.989 352.698 226.761C353.66 226.507 354.674 226.381 355.738 226.381C356.726 226.381 357.65 226.495 358.512 226.723C359.398 226.925 360.158 227.267 360.792 227.749C361.45 228.205 361.957 228.825 362.312 229.611C362.692 230.396 362.882 231.359 362.882 232.499V243.215C362.882 244.101 363.034 244.671 363.338 244.925C363.667 245.153 364.313 245.089 365.276 244.735V246.521C365.098 246.571 364.832 246.647 364.478 246.749C364.148 246.85 363.819 246.901 363.49 246.901C363.135 246.901 362.793 246.863 362.464 246.787C362.084 246.736 361.78 246.622 361.552 246.445C361.324 246.242 361.134 246.014 360.982 245.761C360.855 245.482 360.766 245.191 360.716 244.887C360.665 244.557 360.64 244.215 360.64 243.861C359.677 244.925 358.575 245.735 357.334 246.293C356.092 246.85 354.75 247.129 353.306 247.129C352.444 247.129 351.608 247.015 350.798 246.787C350.012 246.559 349.316 246.204 348.708 245.723C348.1 245.241 347.618 244.659 347.264 243.975C346.909 243.265 346.732 242.429 346.732 241.467C346.732 238.123 349.024 236.147 353.61 235.539L356.764 235.121ZM371.229 246.597H368.949V226.913H371.229V230.599H371.305C371.938 229.028 372.749 227.939 373.737 227.331C374.75 226.697 376.08 226.381 377.727 226.381V228.851C376.435 228.825 375.371 229.028 374.535 229.459C373.699 229.889 373.028 230.472 372.521 231.207C372.04 231.941 371.698 232.815 371.495 233.829C371.318 234.817 371.229 235.855 371.229 236.945V246.597ZM381.831 246.597V219.237H384.111V246.597H381.831ZM389.587 246.597V226.913H391.867V246.597H389.587ZM389.473 222.619V219.237H391.981V222.619H389.473ZM399.949 246.597H397.669V226.913H399.949V229.649C400.861 228.686 401.798 227.901 402.761 227.293C403.749 226.685 404.927 226.381 406.295 226.381C407.511 226.381 408.638 226.596 409.677 227.027C410.716 227.432 411.59 228.154 412.299 229.193C412.78 229.902 413.059 230.637 413.135 231.397C413.236 232.131 413.287 232.904 413.287 233.715V246.597H411.007V233.753C411.007 231.979 410.614 230.649 409.829 229.763C409.044 228.876 407.739 228.433 405.915 228.433C405.206 228.433 404.56 228.547 403.977 228.775C403.394 228.977 402.862 229.256 402.381 229.611C401.925 229.965 401.532 230.371 401.203 230.827C400.874 231.283 400.62 231.764 400.443 232.271C400.215 232.904 400.076 233.512 400.025 234.095C399.974 234.677 399.949 235.311 399.949 235.995V246.597ZM433.984 236.831C433.984 235.64 433.832 234.538 433.528 233.525C433.25 232.486 432.832 231.599 432.274 230.865C431.717 230.105 431.02 229.509 430.184 229.079C429.348 228.648 428.398 228.433 427.334 228.433C426.372 228.433 425.485 228.61 424.674 228.965C423.864 229.294 423.154 229.788 422.546 230.447C421.938 231.105 421.457 231.916 421.102 232.879C420.773 233.816 420.608 234.905 420.608 236.147C420.558 237.388 420.659 238.553 420.912 239.643C421.166 240.707 421.571 241.644 422.128 242.455C422.686 243.265 423.395 243.911 424.256 244.393C425.118 244.849 426.144 245.077 427.334 245.077C428.373 245.077 429.298 244.861 430.108 244.431C430.944 243.975 431.641 243.379 432.198 242.645C432.781 241.885 433.224 241.011 433.528 240.023C433.832 239.009 433.984 237.945 433.984 236.831ZM433.984 226.913H436.264V244.697C436.264 246.014 436.125 247.268 435.846 248.459C435.593 249.675 435.124 250.739 434.44 251.651C433.756 252.563 432.819 253.285 431.628 253.817C430.438 254.374 428.905 254.653 427.03 254.653C425.586 254.653 424.345 254.463 423.306 254.083C422.268 253.728 421.419 253.272 420.76 252.715C420.102 252.157 419.595 251.537 419.24 250.853C418.911 250.194 418.734 249.573 418.708 248.991H421.14C421.318 249.725 421.596 250.321 421.976 250.777C422.356 251.258 422.8 251.625 423.306 251.879C423.838 252.157 424.421 252.347 425.054 252.449C425.688 252.55 426.346 252.601 427.03 252.601C428.576 252.601 429.817 252.335 430.754 251.803C431.692 251.271 432.401 250.574 432.882 249.713C433.364 248.851 433.668 247.876 433.794 246.787C433.946 245.697 434.01 244.583 433.984 243.443C433.25 244.659 432.236 245.583 430.944 246.217C429.678 246.825 428.348 247.129 426.954 247.129C425.46 247.129 424.155 246.85 423.04 246.293C421.951 245.71 421.039 244.95 420.304 244.013C419.595 243.05 419.063 241.935 418.708 240.669C418.354 239.402 418.176 238.085 418.176 236.717C418.176 235.273 418.341 233.917 418.67 232.651C419 231.384 419.519 230.295 420.228 229.383C420.963 228.445 421.888 227.711 423.002 227.179C424.117 226.647 425.472 226.381 427.068 226.381C427.702 226.381 428.348 226.469 429.006 226.647C429.665 226.824 430.298 227.077 430.906 227.407C431.54 227.736 432.11 228.154 432.616 228.661C433.148 229.167 433.579 229.737 433.908 230.371H433.984V226.913ZM445.929 247.737C445.929 248.851 445.663 249.738 445.131 250.397C444.624 251.081 443.965 251.549 443.155 251.803V250.397C443.459 250.194 443.75 249.915 444.029 249.561C444.307 249.206 444.447 248.649 444.447 247.889V246.597H443.155V243.253H445.929V247.737ZM186.488 293.597V266.237H189.072V291.393H203.74V293.597H186.488ZM207.603 293.597V273.913H209.883V293.597H207.603ZM207.489 269.619V266.237H209.997V269.619H207.489ZM217.965 293.597H215.685V273.913H217.965V276.649C218.877 275.686 219.814 274.901 220.777 274.293C221.765 273.685 222.943 273.381 224.311 273.381C225.527 273.381 226.654 273.596 227.693 274.027C228.731 274.432 229.605 275.154 230.315 276.193C230.796 276.902 231.075 277.637 231.151 278.397C231.252 279.131 231.303 279.904 231.303 280.715V293.597H229.023V280.753C229.023 278.979 228.63 277.649 227.845 276.763C227.059 275.876 225.755 275.433 223.931 275.433C223.221 275.433 222.575 275.547 221.993 275.775C221.41 275.977 220.878 276.256 220.397 276.611C219.941 276.965 219.548 277.371 219.219 277.827C218.889 278.283 218.636 278.764 218.459 279.271C218.231 279.904 218.091 280.512 218.041 281.095C217.99 281.677 217.965 282.311 217.965 282.995V293.597ZM239.688 273.913V296.219C239.688 297.055 239.65 297.789 239.574 298.423C239.498 299.056 239.321 299.588 239.042 300.019C238.789 300.475 238.396 300.804 237.864 301.007C237.357 301.235 236.648 301.349 235.736 301.349C235.179 301.349 234.685 301.298 234.254 301.197V299.183C234.913 299.259 235.445 299.259 235.85 299.183C236.255 299.132 236.572 298.993 236.8 298.765C237.028 298.537 237.18 298.233 237.256 297.853C237.357 297.473 237.408 297.029 237.408 296.523V273.913H239.688ZM239.802 269.619H237.294V266.237H239.802V269.619ZM259.474 282.387C259.474 281.424 259.334 280.525 259.056 279.689C258.802 278.827 258.41 278.093 257.878 277.485C257.371 276.851 256.725 276.357 255.94 276.003C255.154 275.623 254.255 275.433 253.242 275.433C252.228 275.433 251.329 275.623 250.544 276.003C249.784 276.383 249.125 276.889 248.568 277.523C248.036 278.156 247.605 278.891 247.276 279.727C246.946 280.563 246.731 281.449 246.63 282.387H259.474ZM246.63 284.287C246.63 285.351 246.769 286.364 247.048 287.327C247.326 288.264 247.732 289.087 248.264 289.797C248.821 290.481 249.518 291.038 250.354 291.469C251.19 291.874 252.152 292.077 253.242 292.077C254.736 292.077 256.016 291.684 257.08 290.899C258.144 290.113 258.853 288.999 259.208 287.555H261.754C261.475 288.492 261.108 289.366 260.652 290.177C260.196 290.962 259.626 291.659 258.942 292.267C258.258 292.849 257.447 293.305 256.51 293.635C255.572 293.964 254.483 294.129 253.242 294.129C251.671 294.129 250.316 293.863 249.176 293.331C248.036 292.799 247.098 292.077 246.364 291.165C245.629 290.227 245.084 289.138 244.73 287.897C244.375 286.63 244.198 285.275 244.198 283.831C244.198 282.387 244.4 281.031 244.806 279.765C245.236 278.498 245.832 277.396 246.592 276.459C247.377 275.496 248.327 274.749 249.442 274.217C250.556 273.659 251.823 273.381 253.242 273.381C255.952 273.381 258.08 274.318 259.626 276.193C261.171 278.042 261.931 280.74 261.906 284.287H246.63ZM264.363 275.813V273.913H267.289V270.797C267.289 269.226 267.606 267.985 268.239 267.073C268.872 266.161 269.949 265.705 271.469 265.705C271.824 265.705 272.153 265.717 272.457 265.743C272.761 265.768 273.065 265.806 273.369 265.857V267.947C272.862 267.82 272.406 267.757 272.001 267.757C271.418 267.757 270.962 267.871 270.633 268.099C270.304 268.301 270.063 268.58 269.911 268.935C269.759 269.289 269.658 269.695 269.607 270.151C269.582 270.581 269.569 271.025 269.569 271.481V273.913H273.369V275.813H269.569V293.597H267.289V275.813H264.363ZM284.743 294.129C283.476 294.103 282.286 293.875 281.171 293.445C280.082 293.014 279.119 292.368 278.283 291.507C277.472 290.645 276.826 289.569 276.345 288.277C275.864 286.985 275.623 285.477 275.623 283.755C275.623 282.311 275.813 280.968 276.193 279.727C276.573 278.46 277.143 277.358 277.903 276.421C278.663 275.483 279.613 274.749 280.753 274.217C281.893 273.659 283.223 273.381 284.743 273.381C286.288 273.381 287.631 273.659 288.771 274.217C289.911 274.749 290.861 275.483 291.621 276.421C292.381 277.333 292.938 278.422 293.293 279.689C293.673 280.955 293.863 282.311 293.863 283.755C293.863 285.325 293.648 286.744 293.217 288.011C292.786 289.277 292.166 290.367 291.355 291.279C290.57 292.191 289.607 292.9 288.467 293.407C287.352 293.888 286.111 294.129 284.743 294.129ZM291.431 283.755C291.431 282.589 291.304 281.5 291.051 280.487C290.798 279.473 290.405 278.599 289.873 277.865C289.341 277.105 288.657 276.509 287.821 276.079C286.985 275.648 285.959 275.433 284.743 275.433C283.552 275.433 282.526 275.673 281.665 276.155C280.829 276.611 280.145 277.231 279.613 278.017C279.081 278.777 278.688 279.663 278.435 280.677C278.182 281.665 278.055 282.691 278.055 283.755C278.055 284.971 278.194 286.098 278.473 287.137C278.777 288.15 279.208 289.024 279.765 289.759C280.322 290.493 281.019 291.063 281.855 291.469C282.691 291.874 283.654 292.077 284.743 292.077C285.934 292.077 286.947 291.849 287.783 291.393C288.644 290.911 289.341 290.278 289.873 289.493C290.405 288.707 290.798 287.821 291.051 286.833C291.304 285.845 291.431 284.819 291.431 283.755ZM300.424 293.597H298.144V273.913H300.424V277.599H300.5C301.134 276.028 301.944 274.939 302.932 274.331C303.946 273.697 305.276 273.381 306.922 273.381V275.851C305.63 275.825 304.566 276.028 303.73 276.459C302.894 276.889 302.223 277.472 301.716 278.207C301.235 278.941 300.893 279.815 300.69 280.829C300.513 281.817 300.424 282.855 300.424 283.945V293.597ZM324.267 282.387C324.267 281.424 324.127 280.525 323.849 279.689C323.595 278.827 323.203 278.093 322.671 277.485C322.164 276.851 321.518 276.357 320.733 276.003C319.947 275.623 319.048 275.433 318.035 275.433C317.021 275.433 316.122 275.623 315.337 276.003C314.577 276.383 313.918 276.889 313.361 277.523C312.829 278.156 312.398 278.891 312.069 279.727C311.739 280.563 311.524 281.449 311.423 282.387H324.267ZM311.423 284.287C311.423 285.351 311.562 286.364 311.841 287.327C312.119 288.264 312.525 289.087 313.057 289.797C313.614 290.481 314.311 291.038 315.147 291.469C315.983 291.874 316.945 292.077 318.035 292.077C319.529 292.077 320.809 291.684 321.873 290.899C322.937 290.113 323.646 288.999 324.001 287.555H326.547C326.268 288.492 325.901 289.366 325.445 290.177C324.989 290.962 324.419 291.659 323.735 292.267C323.051 292.849 322.24 293.305 321.303 293.635C320.365 293.964 319.276 294.129 318.035 294.129C316.464 294.129 315.109 293.863 313.969 293.331C312.829 292.799 311.891 292.077 311.157 291.165C310.422 290.227 309.877 289.138 309.523 287.897C309.168 286.63 308.991 285.275 308.991 283.831C308.991 282.387 309.193 281.031 309.599 279.765C310.029 278.498 310.625 277.396 311.385 276.459C312.17 275.496 313.12 274.749 314.235 274.217C315.349 273.659 316.616 273.381 318.035 273.381C320.745 273.381 322.873 274.318 324.419 276.193C325.964 278.042 326.724 280.74 326.699 284.287H311.423ZM333.412 293.597H331.132V273.913H333.412V276.649C334.324 275.686 335.261 274.901 336.224 274.293C337.212 273.685 338.39 273.381 339.758 273.381C340.974 273.381 342.101 273.596 343.14 274.027C344.179 274.432 345.053 275.154 345.762 276.193C346.243 276.902 346.522 277.637 346.598 278.397C346.699 279.131 346.75 279.904 346.75 280.715V293.597H344.47V280.753C344.47 278.979 344.077 277.649 343.292 276.763C342.507 275.876 341.202 275.433 339.378 275.433C338.669 275.433 338.023 275.547 337.44 275.775C336.857 275.977 336.325 276.256 335.844 276.611C335.388 276.965 334.995 277.371 334.666 277.827C334.337 278.283 334.083 278.764 333.906 279.271C333.678 279.904 333.539 280.512 333.488 281.095C333.437 281.677 333.412 282.311 333.412 282.995V293.597ZM351.921 293.597V273.913H354.201V293.597H351.921ZM351.807 269.619V266.237H354.315V269.619H351.807ZM362.283 293.597H360.003V273.913H362.283V276.649C363.195 275.686 364.132 274.901 365.095 274.293C366.083 273.685 367.261 273.381 368.629 273.381C369.845 273.381 370.972 273.596 372.011 274.027C373.05 274.432 373.924 275.154 374.633 276.193C375.114 276.902 375.393 277.637 375.469 278.397C375.57 279.131 375.621 279.904 375.621 280.715V293.597H373.341V280.753C373.341 278.979 372.948 277.649 372.163 276.763C371.378 275.876 370.073 275.433 368.249 275.433C367.54 275.433 366.894 275.547 366.311 275.775C365.728 275.977 365.196 276.256 364.715 276.611C364.259 276.965 363.866 277.371 363.537 277.827C363.208 278.283 362.954 278.764 362.777 279.271C362.549 279.904 362.41 280.512 362.359 281.095C362.308 281.677 362.283 282.311 362.283 282.995V293.597ZM396.318 283.831C396.318 282.64 396.166 281.538 395.862 280.525C395.584 279.486 395.166 278.599 394.608 277.865C394.051 277.105 393.354 276.509 392.518 276.079C391.682 275.648 390.732 275.433 389.668 275.433C388.706 275.433 387.819 275.61 387.008 275.965C386.198 276.294 385.488 276.788 384.88 277.447C384.272 278.105 383.791 278.916 383.436 279.879C383.107 280.816 382.942 281.905 382.942 283.147C382.892 284.388 382.993 285.553 383.246 286.643C383.5 287.707 383.905 288.644 384.462 289.455C385.02 290.265 385.729 290.911 386.59 291.393C387.452 291.849 388.478 292.077 389.668 292.077C390.707 292.077 391.632 291.861 392.442 291.431C393.278 290.975 393.975 290.379 394.532 289.645C395.115 288.885 395.558 288.011 395.862 287.023C396.166 286.009 396.318 284.945 396.318 283.831ZM396.318 273.913H398.598V291.697C398.598 293.014 398.459 294.268 398.18 295.459C397.927 296.675 397.458 297.739 396.774 298.651C396.09 299.563 395.153 300.285 393.962 300.817C392.772 301.374 391.239 301.653 389.364 301.653C387.92 301.653 386.679 301.463 385.64 301.083C384.602 300.728 383.753 300.272 383.094 299.715C382.436 299.157 381.929 298.537 381.574 297.853C381.245 297.194 381.068 296.573 381.042 295.991H383.474C383.652 296.725 383.93 297.321 384.31 297.777C384.69 298.258 385.134 298.625 385.64 298.879C386.172 299.157 386.755 299.347 387.388 299.449C388.022 299.55 388.68 299.601 389.364 299.601C390.91 299.601 392.151 299.335 393.088 298.803C394.026 298.271 394.735 297.574 395.216 296.713C395.698 295.851 396.002 294.876 396.128 293.787C396.28 292.697 396.344 291.583 396.318 290.443C395.584 291.659 394.57 292.583 393.278 293.217C392.012 293.825 390.682 294.129 389.288 294.129C387.794 294.129 386.489 293.85 385.374 293.293C384.285 292.71 383.373 291.95 382.638 291.013C381.929 290.05 381.397 288.935 381.042 287.669C380.688 286.402 380.51 285.085 380.51 283.717C380.51 282.273 380.675 280.917 381.004 279.651C381.334 278.384 381.853 277.295 382.562 276.383C383.297 275.445 384.222 274.711 385.336 274.179C386.451 273.647 387.806 273.381 389.402 273.381C390.036 273.381 390.682 273.469 391.34 273.647C391.999 273.824 392.632 274.077 393.24 274.407C393.874 274.736 394.444 275.154 394.95 275.661C395.482 276.167 395.913 276.737 396.242 277.371H396.318V273.913ZM418.599 282.387C418.599 281.424 418.459 280.525 418.181 279.689C417.927 278.827 417.535 278.093 417.003 277.485C416.496 276.851 415.85 276.357 415.065 276.003C414.279 275.623 413.38 275.433 412.367 275.433C411.353 275.433 410.454 275.623 409.669 276.003C408.909 276.383 408.25 276.889 407.693 277.523C407.161 278.156 406.73 278.891 406.401 279.727C406.071 280.563 405.856 281.449 405.755 282.387H418.599ZM405.755 284.287C405.755 285.351 405.894 286.364 406.173 287.327C406.451 288.264 406.857 289.087 407.389 289.797C407.946 290.481 408.643 291.038 409.479 291.469C410.315 291.874 411.277 292.077 412.367 292.077C413.861 292.077 415.141 291.684 416.205 290.899C417.269 290.113 417.978 288.999 418.333 287.555H420.879C420.6 288.492 420.233 289.366 419.777 290.177C419.321 290.962 418.751 291.659 418.067 292.267C417.383 292.849 416.572 293.305 415.635 293.635C414.697 293.964 413.608 294.129 412.367 294.129C410.796 294.129 409.441 293.863 408.301 293.331C407.161 292.799 406.223 292.077 405.489 291.165C404.754 290.227 404.209 289.138 403.855 287.897C403.5 286.63 403.323 285.275 403.323 283.831C403.323 282.387 403.525 281.031 403.931 279.765C404.361 278.498 404.957 277.396 405.717 276.459C406.502 275.496 407.452 274.749 408.567 274.217C409.681 273.659 410.948 273.381 412.367 273.381C415.077 273.381 417.205 274.318 418.751 276.193C420.296 278.042 421.056 280.74 421.031 284.287H405.755ZM427.744 293.597H425.464V273.913H427.744V276.649C428.656 275.686 429.593 274.901 430.556 274.293C431.544 273.685 432.722 273.381 434.09 273.381C435.306 273.381 436.433 273.596 437.472 274.027C438.511 274.432 439.385 275.154 440.094 276.193C440.575 276.902 440.854 277.637 440.93 278.397C441.031 279.131 441.082 279.904 441.082 280.715V293.597H438.802V280.753C438.802 278.979 438.409 277.649 437.624 276.763C436.839 275.876 435.534 275.433 433.71 275.433C433.001 275.433 432.355 275.547 431.772 275.775C431.189 275.977 430.657 276.256 430.176 276.611C429.72 276.965 429.327 277.371 428.998 277.827C428.669 278.283 428.415 278.764 428.238 279.271C428.01 279.904 427.871 280.512 427.82 281.095C427.769 281.677 427.744 282.311 427.744 282.995V293.597ZM455.179 275.813V273.913H458.105V270.797C458.105 269.226 458.422 267.985 459.055 267.073C459.689 266.161 460.765 265.705 462.285 265.705C462.64 265.705 462.969 265.717 463.273 265.743C463.577 265.768 463.881 265.806 464.185 265.857V267.947C463.679 267.82 463.223 267.757 462.817 267.757C462.235 267.757 461.779 267.871 461.449 268.099C461.12 268.301 460.879 268.58 460.727 268.935C460.575 269.289 460.474 269.695 460.423 270.151C460.398 270.581 460.385 271.025 460.385 271.481V273.913H464.185V275.813H460.385V293.597H458.105V275.813H455.179ZM475.559 294.129C474.293 294.103 473.102 293.875 471.987 293.445C470.898 293.014 469.935 292.368 469.099 291.507C468.289 290.645 467.643 289.569 467.161 288.277C466.68 286.985 466.439 285.477 466.439 283.755C466.439 282.311 466.629 280.968 467.009 279.727C467.389 278.46 467.959 277.358 468.719 276.421C469.479 275.483 470.429 274.749 471.569 274.217C472.709 273.659 474.039 273.381 475.559 273.381C477.105 273.381 478.447 273.659 479.587 274.217C480.727 274.749 481.677 275.483 482.437 276.421C483.197 277.333 483.755 278.422 484.109 279.689C484.489 280.955 484.679 282.311 484.679 283.755C484.679 285.325 484.464 286.744 484.033 288.011C483.603 289.277 482.982 290.367 482.171 291.279C481.386 292.191 480.423 292.9 479.283 293.407C478.169 293.888 476.927 294.129 475.559 294.129ZM482.247 283.755C482.247 282.589 482.121 281.5 481.867 280.487C481.614 279.473 481.221 278.599 480.689 277.865C480.157 277.105 479.473 276.509 478.637 276.079C477.801 275.648 476.775 275.433 475.559 275.433C474.369 275.433 473.343 275.673 472.481 276.155C471.645 276.611 470.961 277.231 470.429 278.017C469.897 278.777 469.505 279.663 469.251 280.677C468.998 281.665 468.871 282.691 468.871 283.755C468.871 284.971 469.011 286.098 469.289 287.137C469.593 288.15 470.024 289.024 470.581 289.759C471.139 290.493 471.835 291.063 472.671 291.469C473.507 291.874 474.47 292.077 475.559 292.077C476.75 292.077 477.763 291.849 478.599 291.393C479.461 290.911 480.157 290.278 480.689 289.493C481.221 288.707 481.614 287.821 481.867 286.833C482.121 285.845 482.247 284.819 482.247 283.755ZM491.241 293.597H488.961V273.913H491.241V277.599H491.317C491.95 276.028 492.761 274.939 493.749 274.331C494.762 273.697 496.092 273.381 497.739 273.381V275.851C496.447 275.825 495.383 276.028 494.547 276.459C493.711 276.889 493.039 277.472 492.533 278.207C492.051 278.941 491.709 279.815 491.507 280.829C491.329 281.817 491.241 282.855 491.241 283.945V293.597ZM209.233 330.261C208.27 330.666 207.295 330.932 206.307 331.059C205.319 331.185 204.331 331.287 203.343 331.363C201.595 331.489 200.227 331.882 199.239 332.541C198.276 333.199 197.795 334.2 197.795 335.543C197.795 336.151 197.909 336.683 198.137 337.139C198.39 337.569 198.707 337.937 199.087 338.241C199.492 338.519 199.948 338.735 200.455 338.887C200.987 339.013 201.519 339.077 202.051 339.077C202.963 339.077 203.849 338.963 204.711 338.735C205.572 338.507 206.332 338.165 206.991 337.709C207.675 337.227 208.219 336.632 208.625 335.923C209.03 335.188 209.233 334.327 209.233 333.339V330.261ZM205.395 329.121C205.825 329.07 206.332 328.994 206.915 328.893C207.523 328.791 208.017 328.652 208.397 328.475C208.777 328.297 209.005 328.006 209.081 327.601C209.182 327.17 209.233 326.777 209.233 326.423C209.233 325.257 208.853 324.307 208.093 323.573C207.358 322.813 206.104 322.433 204.331 322.433C203.545 322.433 202.823 322.509 202.165 322.661C201.506 322.787 200.923 323.028 200.417 323.383C199.935 323.712 199.53 324.168 199.201 324.751C198.897 325.308 198.694 326.017 198.593 326.879H196.275C196.351 325.713 196.617 324.725 197.073 323.915C197.529 323.079 198.111 322.407 198.821 321.901C199.555 321.369 200.391 320.989 201.329 320.761C202.291 320.507 203.305 320.381 204.369 320.381C205.357 320.381 206.281 320.495 207.143 320.723C208.029 320.925 208.789 321.267 209.423 321.749C210.081 322.205 210.588 322.825 210.943 323.611C211.323 324.396 211.513 325.359 211.513 326.499V337.215C211.513 338.101 211.665 338.671 211.969 338.925C212.298 339.153 212.944 339.089 213.907 338.735V340.521C213.729 340.571 213.463 340.647 213.109 340.749C212.779 340.85 212.45 340.901 212.121 340.901C211.766 340.901 211.424 340.863 211.095 340.787C210.715 340.736 210.411 340.622 210.183 340.445C209.955 340.242 209.765 340.014 209.613 339.761C209.486 339.482 209.397 339.191 209.347 338.887C209.296 338.557 209.271 338.215 209.271 337.861C208.308 338.925 207.206 339.735 205.965 340.293C204.723 340.85 203.381 341.129 201.937 341.129C201.075 341.129 200.239 341.015 199.429 340.787C198.643 340.559 197.947 340.204 197.339 339.723C196.731 339.241 196.249 338.659 195.895 337.975C195.54 337.265 195.363 336.429 195.363 335.467C195.363 332.123 197.655 330.147 202.241 329.539L205.395 329.121ZM217.808 340.597V313.237H220.088V340.597H217.808ZM226.232 340.597V313.237H228.512V340.597H226.232ZM248.564 329.387C248.564 328.424 248.424 327.525 248.146 326.689C247.892 325.827 247.5 325.093 246.968 324.485C246.461 323.851 245.815 323.357 245.03 323.003C244.244 322.623 243.345 322.433 242.332 322.433C241.318 322.433 240.419 322.623 239.634 323.003C238.874 323.383 238.215 323.889 237.658 324.523C237.126 325.156 236.695 325.891 236.366 326.727C236.036 327.563 235.821 328.449 235.72 329.387H248.564ZM235.72 331.287C235.72 332.351 235.859 333.364 236.138 334.327C236.416 335.264 236.822 336.087 237.354 336.797C237.911 337.481 238.608 338.038 239.444 338.469C240.28 338.874 241.242 339.077 242.332 339.077C243.826 339.077 245.106 338.684 246.17 337.899C247.234 337.113 247.943 335.999 248.298 334.555H250.844C250.565 335.492 250.198 336.366 249.742 337.177C249.286 337.962 248.716 338.659 248.032 339.267C247.348 339.849 246.537 340.305 245.6 340.635C244.662 340.964 243.573 341.129 242.332 341.129C240.761 341.129 239.406 340.863 238.266 340.331C237.126 339.799 236.188 339.077 235.454 338.165C234.719 337.227 234.174 336.138 233.82 334.897C233.465 333.63 233.288 332.275 233.288 330.831C233.288 329.387 233.49 328.031 233.896 326.765C234.326 325.498 234.922 324.396 235.682 323.459C236.467 322.496 237.417 321.749 238.532 321.217C239.646 320.659 240.913 320.381 242.332 320.381C245.042 320.381 247.17 321.318 248.716 323.193C250.261 325.042 251.021 327.74 250.996 331.287H235.72ZM268.551 330.831C268.551 331.945 268.703 333.009 269.007 334.023C269.311 335.011 269.742 335.885 270.299 336.645C270.882 337.379 271.578 337.975 272.389 338.431C273.225 338.861 274.162 339.077 275.201 339.077C276.366 339.077 277.38 338.849 278.241 338.393C279.128 337.911 279.85 337.265 280.407 336.455C280.964 335.644 281.37 334.707 281.623 333.643C281.876 332.553 281.978 331.388 281.927 330.147C281.927 328.905 281.75 327.816 281.395 326.879C281.066 325.916 280.597 325.105 279.989 324.447C279.381 323.788 278.672 323.294 277.861 322.965C277.05 322.61 276.164 322.433 275.201 322.433C274.137 322.433 273.187 322.648 272.351 323.079C271.515 323.509 270.818 324.105 270.261 324.865C269.704 325.599 269.273 326.486 268.969 327.525C268.69 328.538 268.551 329.64 268.551 330.831ZM268.551 348.349H266.271V320.913H268.551V324.371H268.627C268.956 323.737 269.374 323.167 269.881 322.661C270.413 322.154 270.983 321.736 271.591 321.407C272.224 321.077 272.87 320.824 273.529 320.647C274.188 320.469 274.834 320.381 275.467 320.381C277.063 320.381 278.418 320.647 279.533 321.179C280.648 321.711 281.56 322.445 282.269 323.383C283.004 324.295 283.536 325.384 283.865 326.651C284.194 327.917 284.359 329.273 284.359 330.717C284.359 332.085 284.182 333.402 283.827 334.669C283.472 335.935 282.928 337.05 282.193 338.013C281.484 338.95 280.572 339.71 279.457 340.293C278.368 340.85 277.076 341.129 275.581 341.129C274.188 341.129 272.845 340.825 271.553 340.217C270.286 339.583 269.286 338.659 268.551 337.443V348.349ZM302.117 330.261C301.155 330.666 300.179 330.932 299.191 331.059C298.203 331.185 297.215 331.287 296.227 331.363C294.479 331.489 293.111 331.882 292.123 332.541C291.161 333.199 290.679 334.2 290.679 335.543C290.679 336.151 290.793 336.683 291.021 337.139C291.275 337.569 291.591 337.937 291.971 338.241C292.377 338.519 292.833 338.735 293.339 338.887C293.871 339.013 294.403 339.077 294.935 339.077C295.847 339.077 296.734 338.963 297.595 338.735C298.457 338.507 299.217 338.165 299.875 337.709C300.559 337.227 301.104 336.632 301.509 335.923C301.915 335.188 302.117 334.327 302.117 333.339V330.261ZM298.279 329.121C298.71 329.07 299.217 328.994 299.799 328.893C300.407 328.791 300.901 328.652 301.281 328.475C301.661 328.297 301.889 328.006 301.965 327.601C302.067 327.17 302.117 326.777 302.117 326.423C302.117 325.257 301.737 324.307 300.977 323.573C300.243 322.813 298.989 322.433 297.215 322.433C296.43 322.433 295.708 322.509 295.049 322.661C294.391 322.787 293.808 323.028 293.301 323.383C292.82 323.712 292.415 324.168 292.085 324.751C291.781 325.308 291.579 326.017 291.477 326.879H289.159C289.235 325.713 289.501 324.725 289.957 323.915C290.413 323.079 290.996 322.407 291.705 321.901C292.44 321.369 293.276 320.989 294.213 320.761C295.176 320.507 296.189 320.381 297.253 320.381C298.241 320.381 299.166 320.495 300.027 320.723C300.914 320.925 301.674 321.267 302.307 321.749C302.966 322.205 303.473 322.825 303.827 323.611C304.207 324.396 304.397 325.359 304.397 326.499V337.215C304.397 338.101 304.549 338.671 304.853 338.925C305.183 339.153 305.829 339.089 306.791 338.735V340.521C306.614 340.571 306.348 340.647 305.993 340.749C305.664 340.85 305.335 340.901 305.005 340.901C304.651 340.901 304.309 340.863 303.979 340.787C303.599 340.736 303.295 340.622 303.067 340.445C302.839 340.242 302.649 340.014 302.497 339.761C302.371 339.482 302.282 339.191 302.231 338.887C302.181 338.557 302.155 338.215 302.155 337.861C301.193 338.925 300.091 339.735 298.849 340.293C297.608 340.85 296.265 341.129 294.821 341.129C293.96 341.129 293.124 341.015 292.313 340.787C291.528 340.559 290.831 340.204 290.223 339.723C289.615 339.241 289.134 338.659 288.779 337.975C288.425 337.265 288.247 336.429 288.247 335.467C288.247 332.123 290.54 330.147 295.125 329.539L298.279 329.121ZM297.101 318.633C296.595 318.633 296.101 318.531 295.619 318.329C295.163 318.126 294.758 317.86 294.403 317.531C294.074 317.176 293.808 316.771 293.605 316.315C293.403 315.859 293.301 315.377 293.301 314.871C293.301 314.364 293.403 313.883 293.605 313.427C293.808 312.971 294.087 312.565 294.441 312.211C294.796 311.856 295.201 311.577 295.657 311.375C296.113 311.172 296.595 311.071 297.101 311.071C297.608 311.071 298.089 311.172 298.545 311.375C299.001 311.577 299.394 311.856 299.723 312.211C300.078 312.565 300.357 312.971 300.559 313.427C300.762 313.883 300.863 314.364 300.863 314.871C300.863 315.377 300.762 315.859 300.559 316.315C300.357 316.771 300.078 317.176 299.723 317.531C299.394 317.86 299.001 318.126 298.545 318.329C298.089 318.531 297.608 318.633 297.101 318.633ZM297.101 317.379C297.76 317.379 298.343 317.125 298.849 316.619C299.356 316.112 299.609 315.529 299.609 314.871C299.609 314.212 299.356 313.629 298.849 313.123C298.368 312.591 297.785 312.325 297.101 312.325C296.417 312.325 295.822 312.578 295.315 313.085C294.809 313.591 294.555 314.187 294.555 314.871C294.555 315.555 294.809 316.15 295.315 316.657C295.847 317.138 296.443 317.379 297.101 317.379ZM336.127 330.679C336.127 329.564 335.975 328.513 335.671 327.525C335.367 326.511 334.923 325.637 334.341 324.903C333.783 324.143 333.087 323.547 332.251 323.117C331.44 322.661 330.515 322.433 329.477 322.433C328.286 322.433 327.26 322.673 326.399 323.155C325.537 323.611 324.828 324.244 324.271 325.055C323.713 325.865 323.308 326.815 323.055 327.905C322.801 328.969 322.7 330.121 322.751 331.363C322.751 332.604 322.915 333.706 323.245 334.669C323.599 335.606 324.081 336.404 324.689 337.063C325.297 337.721 326.006 338.228 326.817 338.583C327.627 338.912 328.514 339.077 329.477 339.077C330.541 339.077 331.491 338.861 332.327 338.431C333.163 338 333.859 337.417 334.417 336.683C334.974 335.923 335.392 335.036 335.671 334.023C335.975 332.984 336.127 331.869 336.127 330.679ZM336.127 313.237H338.407V340.597H336.127V337.139H336.051C335.721 337.797 335.291 338.38 334.759 338.887C334.252 339.368 333.682 339.773 333.049 340.103C332.441 340.432 331.807 340.685 331.149 340.863C330.49 341.04 329.844 341.129 329.211 341.129C327.615 341.129 326.259 340.863 325.145 340.331C324.03 339.799 323.105 339.077 322.371 338.165C321.661 337.227 321.142 336.125 320.813 334.859C320.483 333.592 320.319 332.237 320.319 330.793C320.319 329.425 320.496 328.107 320.851 326.841C321.205 325.574 321.737 324.472 322.447 323.535C323.181 322.572 324.093 321.812 325.183 321.255C326.297 320.672 327.602 320.381 329.097 320.381C330.49 320.381 331.82 320.697 333.087 321.331C334.379 321.939 335.392 322.851 336.127 324.067V313.237ZM358.407 329.387C358.407 328.424 358.268 327.525 357.989 326.689C357.736 325.827 357.343 325.093 356.811 324.485C356.305 323.851 355.659 323.357 354.873 323.003C354.088 322.623 353.189 322.433 352.175 322.433C351.162 322.433 350.263 322.623 349.477 323.003C348.717 323.383 348.059 323.889 347.501 324.523C346.969 325.156 346.539 325.891 346.209 326.727C345.88 327.563 345.665 328.449 345.563 329.387H358.407ZM345.563 331.287C345.563 332.351 345.703 333.364 345.981 334.327C346.26 335.264 346.665 336.087 347.197 336.797C347.755 337.481 348.451 338.038 349.287 338.469C350.123 338.874 351.086 339.077 352.175 339.077C353.67 339.077 354.949 338.684 356.013 337.899C357.077 337.113 357.787 335.999 358.141 334.555H360.687C360.409 335.492 360.041 336.366 359.585 337.177C359.129 337.962 358.559 338.659 357.875 339.267C357.191 339.849 356.381 340.305 355.443 340.635C354.506 340.964 353.417 341.129 352.175 341.129C350.605 341.129 349.249 340.863 348.109 340.331C346.969 339.799 346.032 339.077 345.297 338.165C344.563 337.227 344.018 336.138 343.663 334.897C343.309 333.63 343.131 332.275 343.131 330.831C343.131 329.387 343.334 328.031 343.739 326.765C344.17 325.498 344.765 324.396 345.525 323.459C346.311 322.496 347.261 321.749 348.375 321.217C349.49 320.659 350.757 320.381 352.175 320.381C354.886 320.381 357.014 321.318 358.559 323.193C360.105 325.042 360.865 327.74 360.839 331.287H345.563ZM366.602 334.441C366.957 336.138 367.59 337.341 368.502 338.051C369.44 338.735 370.77 339.077 372.492 339.077C373.328 339.077 374.05 338.975 374.658 338.773C375.266 338.57 375.76 338.304 376.14 337.975C376.546 337.62 376.85 337.227 377.053 336.797C377.255 336.366 377.356 335.91 377.356 335.429C377.356 334.466 377.04 333.757 376.406 333.301C375.798 332.819 375.026 332.452 374.088 332.199C373.151 331.92 372.138 331.692 371.048 331.515C369.959 331.312 368.946 331.021 368.008 330.641C367.071 330.261 366.286 329.716 365.652 329.007C365.044 328.297 364.74 327.297 364.74 326.005C364.74 324.358 365.336 323.015 366.526 321.977C367.742 320.913 369.452 320.381 371.656 320.381C373.784 320.381 375.507 320.862 376.824 321.825C378.167 322.762 378.978 324.345 379.257 326.575H376.938C376.736 325.055 376.153 323.991 375.19 323.383C374.253 322.749 373.062 322.433 371.618 322.433C370.174 322.433 369.072 322.749 368.312 323.383C367.552 323.991 367.172 324.801 367.172 325.815C367.172 326.701 367.476 327.385 368.084 327.867C368.718 328.323 369.503 328.703 370.44 329.007C371.378 329.285 372.391 329.539 373.48 329.767C374.57 329.995 375.583 330.324 376.521 330.755C377.458 331.16 378.231 331.717 378.838 332.427C379.472 333.136 379.789 334.124 379.789 335.391C379.789 336.328 379.586 337.164 379.18 337.899C378.775 338.608 378.218 339.203 377.508 339.685C376.799 340.166 375.95 340.521 374.962 340.749C374 341.002 372.936 341.129 371.77 341.129C370.605 341.129 369.566 340.951 368.654 340.597C367.768 340.267 367.008 339.799 366.374 339.191C365.741 338.583 365.247 337.873 364.892 337.063C364.538 336.252 364.335 335.378 364.284 334.441H366.602ZM383.947 340.597V320.913H386.227V340.597H383.947ZM383.833 316.619V313.237H386.341V316.619H383.833ZM407.228 330.831C407.228 329.64 407.076 328.538 406.772 327.525C406.494 326.486 406.076 325.599 405.518 324.865C404.961 324.105 404.264 323.509 403.428 323.079C402.592 322.648 401.642 322.433 400.578 322.433C399.616 322.433 398.729 322.61 397.918 322.965C397.108 323.294 396.398 323.788 395.79 324.447C395.182 325.105 394.701 325.916 394.346 326.879C394.017 327.816 393.852 328.905 393.852 330.147C393.802 331.388 393.903 332.553 394.156 333.643C394.41 334.707 394.815 335.644 395.372 336.455C395.93 337.265 396.639 337.911 397.5 338.393C398.362 338.849 399.388 339.077 400.578 339.077C401.617 339.077 402.542 338.861 403.352 338.431C404.188 337.975 404.885 337.379 405.442 336.645C406.025 335.885 406.468 335.011 406.772 334.023C407.076 333.009 407.228 331.945 407.228 330.831ZM407.228 320.913H409.508V338.697C409.508 340.014 409.369 341.268 409.09 342.459C408.837 343.675 408.368 344.739 407.684 345.651C407 346.563 406.063 347.285 404.872 347.817C403.682 348.374 402.149 348.653 400.274 348.653C398.83 348.653 397.589 348.463 396.55 348.083C395.512 347.728 394.663 347.272 394.004 346.715C393.346 346.157 392.839 345.537 392.484 344.853C392.155 344.194 391.978 343.573 391.952 342.991H394.384C394.562 343.725 394.84 344.321 395.22 344.777C395.6 345.258 396.044 345.625 396.55 345.879C397.082 346.157 397.665 346.347 398.298 346.449C398.932 346.55 399.59 346.601 400.274 346.601C401.82 346.601 403.061 346.335 403.998 345.803C404.936 345.271 405.645 344.574 406.126 343.713C406.608 342.851 406.912 341.876 407.038 340.787C407.19 339.697 407.254 338.583 407.228 337.443C406.494 338.659 405.48 339.583 404.188 340.217C402.922 340.825 401.592 341.129 400.198 341.129C398.704 341.129 397.399 340.85 396.284 340.293C395.195 339.71 394.283 338.95 393.548 338.013C392.839 337.05 392.307 335.935 391.952 334.669C391.598 333.402 391.42 332.085 391.42 330.717C391.42 329.273 391.585 327.917 391.914 326.651C392.244 325.384 392.763 324.295 393.472 323.383C394.207 322.445 395.132 321.711 396.246 321.179C397.361 320.647 398.716 320.381 400.312 320.381C400.946 320.381 401.592 320.469 402.25 320.647C402.909 320.824 403.542 321.077 404.15 321.407C404.784 321.736 405.354 322.154 405.86 322.661C406.392 323.167 406.823 323.737 407.152 324.371H407.228V320.913ZM417.539 340.597H415.259V320.913H417.539V323.649C418.451 322.686 419.388 321.901 420.351 321.293C421.339 320.685 422.517 320.381 423.885 320.381C425.101 320.381 426.228 320.596 427.267 321.027C428.305 321.432 429.179 322.154 429.889 323.193C430.37 323.902 430.649 324.637 430.725 325.397C430.826 326.131 430.877 326.904 430.877 327.715V340.597H428.597V327.753C428.597 325.979 428.204 324.649 427.419 323.763C426.633 322.876 425.329 322.433 423.505 322.433C422.795 322.433 422.149 322.547 421.567 322.775C420.984 322.977 420.452 323.256 419.971 323.611C419.515 323.965 419.122 324.371 418.793 324.827C418.463 325.283 418.21 325.764 418.033 326.271C417.805 326.904 417.665 327.512 417.615 328.095C417.564 328.677 417.539 329.311 417.539 329.995V340.597ZM434.398 322.813V320.913H437.324V317.797C437.324 316.226 437.641 314.985 438.274 314.073C438.907 313.161 439.984 312.705 441.504 312.705C441.859 312.705 442.188 312.717 442.492 312.743C442.796 312.768 443.1 312.806 443.404 312.857V314.947C442.897 314.82 442.441 314.757 442.036 314.757C441.453 314.757 440.997 314.871 440.668 315.099C440.339 315.301 440.098 315.58 439.946 315.935C439.794 316.289 439.693 316.695 439.642 317.151C439.617 317.581 439.604 318.025 439.604 318.481V320.913H443.404V322.813H439.604V340.597H437.324V322.813H434.398ZM459.832 330.261C458.87 330.666 457.894 330.932 456.906 331.059C455.918 331.185 454.93 331.287 453.942 331.363C452.194 331.489 450.826 331.882 449.838 332.541C448.876 333.199 448.394 334.2 448.394 335.543C448.394 336.151 448.508 336.683 448.736 337.139C448.99 337.569 449.306 337.937 449.686 338.241C450.092 338.519 450.548 338.735 451.054 338.887C451.586 339.013 452.118 339.077 452.65 339.077C453.562 339.077 454.449 338.963 455.31 338.735C456.172 338.507 456.932 338.165 457.59 337.709C458.274 337.227 458.819 336.632 459.224 335.923C459.63 335.188 459.832 334.327 459.832 333.339V330.261ZM455.994 329.121C456.425 329.07 456.932 328.994 457.514 328.893C458.122 328.791 458.616 328.652 458.996 328.475C459.376 328.297 459.604 328.006 459.68 327.601C459.782 327.17 459.832 326.777 459.832 326.423C459.832 325.257 459.452 324.307 458.692 323.573C457.958 322.813 456.704 322.433 454.93 322.433C454.145 322.433 453.423 322.509 452.764 322.661C452.106 322.787 451.523 323.028 451.016 323.383C450.535 323.712 450.13 324.168 449.8 324.751C449.496 325.308 449.294 326.017 449.192 326.879H446.874C446.95 325.713 447.216 324.725 447.672 323.915C448.128 323.079 448.711 322.407 449.42 321.901C450.155 321.369 450.991 320.989 451.928 320.761C452.891 320.507 453.904 320.381 454.968 320.381C455.956 320.381 456.881 320.495 457.742 320.723C458.629 320.925 459.389 321.267 460.022 321.749C460.681 322.205 461.188 322.825 461.542 323.611C461.922 324.396 462.112 325.359 462.112 326.499V337.215C462.112 338.101 462.264 338.671 462.568 338.925C462.898 339.153 463.544 339.089 464.506 338.735V340.521C464.329 340.571 464.063 340.647 463.708 340.749C463.379 340.85 463.05 340.901 462.72 340.901C462.366 340.901 462.024 340.863 461.694 340.787C461.314 340.736 461.01 340.622 460.782 340.445C460.554 340.242 460.364 340.014 460.212 339.761C460.086 339.482 459.997 339.191 459.946 338.887C459.896 338.557 459.87 338.215 459.87 337.861C458.908 338.925 457.806 339.735 456.564 340.293C455.323 340.85 453.98 341.129 452.536 341.129C451.675 341.129 450.839 341.015 450.028 340.787C449.243 340.559 448.546 340.204 447.938 339.723C447.33 339.241 446.849 338.659 446.494 337.975C446.14 337.265 445.962 336.429 445.962 335.467C445.962 332.123 448.255 330.147 452.84 329.539L455.994 329.121ZM483.265 330.831C483.265 329.64 483.113 328.538 482.809 327.525C482.531 326.486 482.113 325.599 481.555 324.865C480.998 324.105 480.301 323.509 479.465 323.079C478.629 322.648 477.679 322.433 476.615 322.433C475.653 322.433 474.766 322.61 473.955 322.965C473.145 323.294 472.435 323.788 471.827 324.447C471.219 325.105 470.738 325.916 470.383 326.879C470.054 327.816 469.889 328.905 469.889 330.147C469.839 331.388 469.94 332.553 470.193 333.643C470.447 334.707 470.852 335.644 471.409 336.455C471.967 337.265 472.676 337.911 473.537 338.393C474.399 338.849 475.425 339.077 476.615 339.077C477.654 339.077 478.579 338.861 479.389 338.431C480.225 337.975 480.922 337.379 481.479 336.645C482.062 335.885 482.505 335.011 482.809 334.023C483.113 333.009 483.265 331.945 483.265 330.831ZM483.265 320.913H485.545V338.697C485.545 340.014 485.406 341.268 485.127 342.459C484.874 343.675 484.405 344.739 483.721 345.651C483.037 346.563 482.1 347.285 480.909 347.817C479.719 348.374 478.186 348.653 476.311 348.653C474.867 348.653 473.626 348.463 472.587 348.083C471.549 347.728 470.7 347.272 470.041 346.715C469.383 346.157 468.876 345.537 468.521 344.853C468.192 344.194 468.015 343.573 467.989 342.991H470.421C470.599 343.725 470.877 344.321 471.257 344.777C471.637 345.258 472.081 345.625 472.587 345.879C473.119 346.157 473.702 346.347 474.335 346.449C474.969 346.55 475.627 346.601 476.311 346.601C477.857 346.601 479.098 346.335 480.035 345.803C480.973 345.271 481.682 344.574 482.163 343.713C482.645 342.851 482.949 341.876 483.075 340.787C483.227 339.697 483.291 338.583 483.265 337.443C482.531 338.659 481.517 339.583 480.225 340.217C478.959 340.825 477.629 341.129 476.235 341.129C474.741 341.129 473.436 340.85 472.321 340.293C471.232 339.71 470.32 338.95 469.585 338.013C468.876 337.05 468.344 335.935 467.989 334.669C467.635 333.402 467.457 332.085 467.457 330.717C467.457 329.273 467.622 327.917 467.951 326.651C468.281 325.384 468.8 324.295 469.509 323.383C470.244 322.445 471.169 321.711 472.283 321.179C473.398 320.647 474.753 320.381 476.349 320.381C476.983 320.381 477.629 320.469 478.287 320.647C478.946 320.824 479.579 321.077 480.187 321.407C480.821 321.736 481.391 322.154 481.897 322.661C482.429 323.167 482.86 323.737 483.189 324.371H483.265V320.913ZM189.028 367.913H191.498L197.882 384.785L204.266 367.913H206.736L199.098 387.597H196.552L189.028 367.913ZM224.368 376.387C224.368 375.424 224.229 374.525 223.95 373.689C223.697 372.827 223.304 372.093 222.772 371.485C222.266 370.851 221.62 370.357 220.834 370.003C220.049 369.623 219.15 369.433 218.136 369.433C217.123 369.433 216.224 369.623 215.438 370.003C214.678 370.383 214.02 370.889 213.462 371.523C212.93 372.156 212.5 372.891 212.17 373.727C211.841 374.563 211.626 375.449 211.524 376.387H224.368ZM211.524 378.287C211.524 379.351 211.664 380.364 211.942 381.327C212.221 382.264 212.626 383.087 213.158 383.797C213.716 384.481 214.412 385.038 215.248 385.469C216.084 385.874 217.047 386.077 218.136 386.077C219.631 386.077 220.91 385.684 221.974 384.899C223.038 384.113 223.748 382.999 224.102 381.555H226.648C226.37 382.492 226.002 383.366 225.546 384.177C225.09 384.962 224.52 385.659 223.836 386.267C223.152 386.849 222.342 387.305 221.404 387.635C220.467 387.964 219.378 388.129 218.136 388.129C216.566 388.129 215.21 387.863 214.07 387.331C212.93 386.799 211.993 386.077 211.258 385.165C210.524 384.227 209.979 383.138 209.624 381.897C209.27 380.63 209.092 379.275 209.092 377.831C209.092 376.387 209.295 375.031 209.7 373.765C210.131 372.498 210.726 371.396 211.486 370.459C212.272 369.496 213.222 368.749 214.336 368.217C215.451 367.659 216.718 367.381 218.136 367.381C220.847 367.381 222.975 368.318 224.52 370.193C226.066 372.042 226.826 374.74 226.8 378.287H211.524ZM246.433 377.679C246.433 376.564 246.281 375.513 245.977 374.525C245.673 373.511 245.23 372.637 244.647 371.903C244.09 371.143 243.393 370.547 242.557 370.117C241.747 369.661 240.822 369.433 239.783 369.433C238.593 369.433 237.567 369.673 236.705 370.155C235.844 370.611 235.135 371.244 234.577 372.055C234.02 372.865 233.615 373.815 233.361 374.905C233.108 375.969 233.007 377.121 233.057 378.363C233.057 379.604 233.222 380.706 233.551 381.669C233.906 382.606 234.387 383.404 234.995 384.063C235.603 384.721 236.313 385.228 237.123 385.583C237.934 385.912 238.821 386.077 239.783 386.077C240.847 386.077 241.797 385.861 242.633 385.431C243.469 385 244.166 384.417 244.723 383.683C245.281 382.923 245.699 382.036 245.977 381.023C246.281 379.984 246.433 378.869 246.433 377.679ZM246.433 360.237H248.713V387.597H246.433V384.139H246.357C246.028 384.797 245.597 385.38 245.065 385.887C244.559 386.368 243.989 386.773 243.355 387.103C242.747 387.432 242.114 387.685 241.455 387.863C240.797 388.04 240.151 388.129 239.517 388.129C237.921 388.129 236.566 387.863 235.451 387.331C234.337 386.799 233.412 386.077 232.677 385.165C231.968 384.227 231.449 383.125 231.119 381.859C230.79 380.592 230.625 379.237 230.625 377.793C230.625 376.425 230.803 375.107 231.157 373.841C231.512 372.574 232.044 371.472 232.753 370.535C233.488 369.572 234.4 368.812 235.489 368.255C236.604 367.672 237.909 367.381 239.403 367.381C240.797 367.381 242.127 367.697 243.393 368.331C244.685 368.939 245.699 369.851 246.433 371.067V360.237ZM267.966 363.733H267.89V387.597H265.306V360.237H268.232L284.04 384.139H284.116V360.237H286.7V387.597H283.698L267.966 363.733ZM290.336 360.237H310.248V362.441H301.584V387.597H299V362.441H290.336V360.237ZM316.505 363.733H316.429V387.597H313.845V360.237H316.771L332.579 384.139H332.655V360.237H335.239V387.597H332.237L316.505 363.733ZM341.383 360.237H343.967V376.539C343.967 379.933 344.6 382.378 345.867 383.873C347.134 385.367 349.173 386.115 351.985 386.115C353.454 386.115 354.696 385.925 355.709 385.545C356.748 385.139 357.584 384.544 358.217 383.759C358.85 382.948 359.306 381.947 359.585 380.757C359.864 379.566 360.003 378.16 360.003 376.539V360.237H362.587V377.299C362.587 380.871 361.7 383.607 359.927 385.507C358.179 387.381 355.532 388.319 351.985 388.319C348.413 388.319 345.753 387.356 344.005 385.431C342.257 383.505 341.383 380.795 341.383 377.299V360.237ZM390.973 375.665V373.461H402.677V387.597H400.473V382.923C399.992 383.733 399.434 384.481 398.801 385.165C398.193 385.823 397.484 386.393 396.673 386.875C395.862 387.331 394.925 387.685 393.861 387.939C392.797 388.192 391.594 388.319 390.251 388.319C388.528 388.319 386.932 388.015 385.463 387.407C383.994 386.799 382.727 385.899 381.663 384.709C380.599 383.493 379.763 381.973 379.155 380.149C378.572 378.325 378.281 376.197 378.281 373.765C378.281 371.763 378.534 369.901 379.041 368.179C379.548 366.431 380.32 364.923 381.359 363.657C382.423 362.365 383.74 361.351 385.311 360.617C386.907 359.882 388.782 359.515 390.935 359.515C392.379 359.515 393.722 359.692 394.963 360.047C396.23 360.401 397.357 360.946 398.345 361.681C399.358 362.39 400.207 363.289 400.891 364.379C401.575 365.443 402.069 366.709 402.373 368.179H399.713C399.485 367.165 399.092 366.253 398.535 365.443C398.003 364.632 397.357 363.961 396.597 363.429C395.837 362.871 394.988 362.453 394.051 362.175C393.114 361.871 392.138 361.719 391.125 361.719C389.326 361.719 387.781 362.035 386.489 362.669C385.197 363.302 384.133 364.201 383.297 365.367C382.461 366.507 381.84 367.887 381.435 369.509C381.055 371.105 380.865 372.865 380.865 374.791C380.865 376.311 381.08 377.755 381.511 379.123C381.967 380.491 382.613 381.694 383.449 382.733C384.31 383.771 385.349 384.595 386.565 385.203C387.806 385.811 389.212 386.115 390.783 386.115C391.518 386.115 392.278 386.039 393.063 385.887C393.848 385.709 394.608 385.431 395.343 385.051C396.078 384.671 396.762 384.177 397.395 383.569C398.028 382.961 398.573 382.213 399.029 381.327C399.46 380.465 399.751 379.566 399.903 378.629C400.08 377.691 400.182 376.703 400.207 375.665H390.973ZM411.467 367.913V390.219C411.467 391.055 411.429 391.789 411.353 392.423C411.277 393.056 411.1 393.588 410.821 394.019C410.568 394.475 410.175 394.804 409.643 395.007C409.136 395.235 408.427 395.349 407.515 395.349C406.958 395.349 406.464 395.298 406.033 395.197V393.183C406.692 393.259 407.224 393.259 407.629 393.183C408.034 393.132 408.351 392.993 408.579 392.765C408.807 392.537 408.959 392.233 409.035 391.853C409.136 391.473 409.187 391.029 409.187 390.523V367.913H411.467ZM411.581 363.619H409.073V360.237H411.581V363.619ZM429.277 371.143C428.922 370.737 428.39 370.357 427.681 370.003C426.972 369.623 426.047 369.433 424.907 369.433C423.716 369.433 422.69 369.673 421.829 370.155C420.993 370.611 420.309 371.231 419.777 372.017C419.245 372.802 418.852 373.701 418.599 374.715C418.346 375.703 418.219 376.729 418.219 377.793C418.219 378.983 418.333 380.009 418.561 380.871C418.789 381.707 419.068 382.378 419.397 382.885L429.277 371.143ZM420.423 384.367C421.006 384.949 421.69 385.38 422.475 385.659C423.286 385.937 424.096 386.077 424.907 386.077C426.098 386.077 427.111 385.849 427.947 385.393C428.808 384.911 429.505 384.291 430.037 383.531C430.569 382.745 430.962 381.859 431.215 380.871C431.468 379.883 431.595 378.857 431.595 377.793C431.595 376.83 431.506 375.893 431.329 374.981C431.177 374.069 430.873 373.245 430.417 372.511L420.423 384.367ZM416.965 388.471L415.597 387.369L417.801 384.785C417.092 383.847 416.572 382.783 416.243 381.593C415.939 380.402 415.787 379.135 415.787 377.793C415.787 376.349 415.977 375.006 416.357 373.765C416.737 372.498 417.307 371.396 418.067 370.459C418.827 369.496 419.777 368.749 420.917 368.217C422.057 367.659 423.387 367.381 424.907 367.381C426.123 367.381 427.212 367.558 428.175 367.913C429.163 368.242 430.024 368.736 430.759 369.395L432.735 367.039L434.065 368.217L431.975 370.687C432.659 371.599 433.166 372.663 433.495 373.879C433.85 375.095 434.027 376.399 434.027 377.793C434.027 379.313 433.824 380.706 433.419 381.973C433.014 383.239 432.418 384.329 431.633 385.241C430.873 386.153 429.923 386.862 428.783 387.369C427.643 387.875 426.351 388.129 424.907 388.129C423.488 388.129 422.285 387.913 421.297 387.483C420.334 387.027 419.574 386.545 419.017 386.039L416.965 388.471ZM436.028 367.913H438.498L444.882 384.785L451.266 367.913H453.736L446.098 387.597H443.552L436.028 367.913ZM456.792 387.597V367.913H459.072V387.597H456.792ZM456.678 363.619V360.237H459.186V363.619H456.678ZM464.722 387.597V360.237H467.002V377.261L476.654 367.913H479.77L472.398 375.019L480.644 387.597H478.098L470.726 376.615L467.002 380.149V387.597H464.722ZM486.078 368.749V360.237H488.852V368.749L488.32 380.719H486.61L486.078 368.749ZM486.078 387.597V384.253H488.852V387.597H486.078Z" fill="white"/>
</g>
<defs>
<filter id="filter0_d_131_14" x="90.0977" y="118.093" width="505.82" height="379.933" filterUnits="userSpaceOnUse" color-interpolation-filters="sRGB">
<feFlood flood-opacity="0" result="BackgroundImageFix"/>
<feColorMatrix in="SourceAlpha" type="matrix" values="0 0 0 0 0 0 0 0 0 0 0 0 0 0 0 0 0 0 127 0" result="hardAlpha"/>
<feOffset dy="4"/>
<feGaussianBlur stdDeviation="2"/>
<feComposite in2="hardAlpha" operator="out"/>
<feColorMatrix type="matrix" values="0 0 0 0 0 0 0 0 0 0 0 0 0 0 0 0 0 0 0.25 0"/>
<feBlend mode="normal" in2="BackgroundImageFix" result="effect1_dropShadow_131_14"/>
<feBlend mode="normal" in="SourceGraphic" in2="effect1_dropShadow_131_14" result="shape"/>
</filter>
</defs>
</svg>
